<svg width="82" height="27" viewBox="0 0 82 27" fill="none" xmlns="http://www.w3.org/2000/svg">
  <path d="M22.3887 8.49183C22.3887 8.49183 29.0582 4.69844 31.1955 3.65714C33.3328 2.61584 35.7521 1.90625 35.7521 1.90625L36.8693 2.39227L30.9876 5.5915L24.6961 9.23788L22.3887 8.49183Z" fill="#F1FBF7"/>
  <path d="M21.7012 7.96875L23.1576 8.05623L25.3046 8.56048L23.5029 8.97603L21.8811 8.37458L21.7012 7.96875Z" fill="#4FAF8D"/>
  <path d="M62.4148 2.24397C62.4148 2.24397 70.5858 5.91343 72.9954 6.40431L72.2939 7.91705L68.2139 6.84294L64.9265 4.64005L61.6015 3.25368C61.6015 3.25368 60.7419 2.27435 60.8538 2.24397C60.9656 2.21359 62.4136 2.24397 62.4136 2.24397H62.4148Z" fill="#F1FBF7"/>
  <path d="M7.3077 21.5747C7.94597 21.78 55.2163 21.5747 55.2163 21.5747L75.3721 20.2952L74.7727 12.4241L11.344 12.3281L6.79102 15.3475V21.2029" fill="#02571E"/>
  <path d="M80.5679 12.3279C80.5679 12.3279 80.467 10.6159 80.467 10.114C80.467 9.61223 79.9381 8.46157 79.9381 8.46157L80.1338 7.28419C80.1338 6.90509 79.2403 7.06426 78.861 7.05697C75.7292 6.99865 72.995 6.4057 72.995 6.4057L72.2935 7.05697C70.8894 6.75686 61.8127 2.59652 61.8127 2.59652C61.8127 2.59652 62.2637 2.2964 62.4144 2.24537C62.5652 2.19555 59.6061 1.09228 49.8279 0.591679C40.0485 0.0910773 35.4858 1.99506 35.4858 1.99506L36.5387 2.34621C32.427 3.34863 25.3052 8.56121 25.3052 8.56121C21.9449 8.56121 21.5948 7.86012 21.5948 7.86012C12.9691 8.31091 5.19691 10.7167 3.54108 11.4688C2.71316 11.8443 1.67856 12.3412 1.32114 12.854C0.96371 13.368 1.07434 13.8722 1.03422 14.5259C1.01477 14.8503 0.456747 15.86 0.426353 16.4943C0.329094 18.4906 0.85794 20.7215 0.85794 20.7215C0.861588 20.832 -0.379682 21.3302 0.117555 21.4796C1.65425 21.9426 6.3312 22.3569 7.20288 22.3946C7.35606 22.4007 7.66851 22.4067 8.1001 22.4116C7.91166 21.7749 7.80954 21.1018 7.80954 20.4043C7.80954 16.4967 10.979 13.3291 14.8888 13.3291C18.7986 13.3291 21.968 16.4967 21.968 20.4043C21.968 21.0957 21.8671 21.764 21.6823 22.3958C21.7042 22.3958 21.7261 22.3958 21.748 22.3958C25.0572 22.346 52.9402 22.2962 58.5569 22.0945C58.6262 22.092 58.6967 22.0896 58.7672 22.0872C58.6359 21.5477 58.5642 20.9851 58.5642 20.4055C58.5642 16.4979 61.7336 13.3303 65.6434 13.3303C69.5533 13.3303 72.7227 16.4979 72.7227 20.4055C72.7227 20.7749 72.6947 21.1382 72.64 21.4918C72.6607 21.4918 72.6789 21.4918 72.6996 21.4942C74.3044 21.544 79.7205 20.5416 79.7205 20.5416L81.5259 18.6376L82 14.4299L80.5739 12.3315L80.5679 12.3279Z" fill="#437BFB"/>
  <path d="M80.5679 12.3279C80.5679 12.3279 80.467 10.6159 80.467 10.114C80.467 9.61223 79.9381 8.46157 79.9381 8.46157L80.1338 7.28419C80.1338 6.90509 79.2403 7.06426 78.861 7.05697C75.7292 6.99865 72.995 6.4057 72.995 6.4057L72.2935 7.05697C70.8894 6.75686 61.8127 2.59652 61.8127 2.59652C61.8127 2.59652 62.2637 2.2964 62.4144 2.24537C62.5652 2.19555 59.6061 1.09228 49.8279 0.591679C40.0485 0.0910773 35.4858 1.99506 35.4858 1.99506L36.5387 2.34621C32.427 3.34863 25.3052 8.56121 25.3052 8.56121C21.9449 8.56121 21.5948 7.86012 21.5948 7.86012C12.9691 8.31091 5.19691 10.7167 3.54108 11.4688C2.71316 11.8443 1.67856 12.3412 1.32114 12.854C0.96371 13.368 1.07434 13.8722 1.03422 14.5259C1.01477 14.8503 0.456747 15.86 0.426353 16.4943C0.329094 18.4906 0.85794 20.7215 0.85794 20.7215C0.861588 20.832 -0.379682 21.3302 0.117555 21.4796C1.65425 21.9426 6.3312 22.3569 7.20288 22.3946C7.35606 22.4007 7.66851 22.4067 8.1001 22.4116C7.91166 21.7749 7.80954 21.1018 7.80954 20.4043C7.80954 16.4967 10.979 13.3291 14.8888 13.3291C18.7986 13.3291 21.968 16.4967 21.968 20.4043C21.968 21.0957 21.8671 21.764 21.6823 22.3958C21.7042 22.3958 21.7261 22.3958 21.748 22.3958C25.0572 22.346 52.9402 22.2962 58.5569 22.0945C58.6262 22.092 58.6967 22.0896 58.7672 22.0872C58.6359 21.5477 58.5642 20.9851 58.5642 20.4055C58.5642 16.4979 61.7336 13.3303 65.6434 13.3303C69.5533 13.3303 72.7227 16.4979 72.7227 20.4055C72.7227 20.7749 72.6947 21.1382 72.64 21.4918C72.6607 21.4918 72.6789 21.4918 72.6996 21.4942C74.3044 21.544 79.7205 20.5416 79.7205 20.5416L81.5259 18.6376L82 14.4299L80.5739 12.3315L80.5679 12.3279Z" fill="#3369A7"/>
  <path d="M80.5679 12.3279C80.5679 12.3279 80.467 10.6159 80.467 10.114C80.467 9.61223 79.9381 8.46157 79.9381 8.46157L80.1338 7.28419C80.1338 6.90509 79.2403 7.06426 78.861 7.05697C75.7292 6.99865 72.995 6.4057 72.995 6.4057L72.2935 7.05697C70.8894 6.75686 61.8127 2.59652 61.8127 2.59652C61.8127 2.59652 62.2637 2.2964 62.4144 2.24537C62.5652 2.19555 59.6061 1.09228 49.8279 0.591679C40.0485 0.0910773 35.4858 1.99506 35.4858 1.99506L36.5387 2.34621C32.427 3.34863 25.3052 8.56121 25.3052 8.56121C21.9449 8.56121 21.5948 7.86012 21.5948 7.86012C12.9691 8.31091 5.19691 10.7167 3.54108 11.4688C2.71316 11.8443 1.67856 12.3412 1.32114 12.854C0.96371 13.368 1.07434 13.8722 1.03422 14.5259C1.01477 14.8503 0.456747 15.86 0.426353 16.4943C0.329094 18.4906 0.85794 20.7215 0.85794 20.7215C0.861588 20.832 -0.379682 21.3302 0.117555 21.4796C1.65425 21.9426 6.3312 22.3569 7.20288 22.3946C7.35606 22.4007 7.66851 22.4067 8.1001 22.4116C7.91166 21.7749 7.80954 21.1018 7.80954 20.4043C7.80954 16.4967 10.979 13.3291 14.8888 13.3291C18.7986 13.3291 21.968 16.4967 21.968 20.4043C21.968 21.0957 21.8671 21.764 21.6823 22.3958C21.7042 22.3958 21.7261 22.3958 21.748 22.3958C25.0572 22.346 52.9402 22.2962 58.5569 22.0945C58.6262 22.092 58.6967 22.0896 58.7672 22.0872C58.6359 21.5477 58.5642 20.9851 58.5642 20.4055C58.5642 16.4979 61.7336 13.3303 65.6434 13.3303C69.5533 13.3303 72.7227 16.4979 72.7227 20.4055C72.7227 20.7749 72.6947 21.1382 72.64 21.4918C72.6607 21.4918 72.6789 21.4918 72.6996 21.4942C74.3044 21.544 79.7205 20.5416 79.7205 20.5416L81.5259 18.6376L82 14.4299L80.5739 12.3315L80.5679 12.3279Z" fill="url(#paint0_linear_901_13918)"/>
  <path d="M80.5679 12.3279C80.5679 12.3279 80.467 10.6159 80.467 10.114C80.467 9.61223 79.9381 8.46157 79.9381 8.46157L80.1338 7.28419C80.1338 6.90509 79.2403 7.06426 78.861 7.05697C75.7292 6.99865 72.995 6.4057 72.995 6.4057L72.2935 7.05697C70.8894 6.75686 61.8127 2.59652 61.8127 2.59652C61.8127 2.59652 62.2637 2.2964 62.4144 2.24537C62.5652 2.19555 59.6061 1.09228 49.8279 0.591679C40.0485 0.0910773 35.4858 1.99506 35.4858 1.99506L36.5387 2.34621C32.427 3.34863 25.3052 8.56121 25.3052 8.56121C21.9449 8.56121 21.5948 7.86012 21.5948 7.86012C12.9691 8.31091 5.19691 10.7167 3.54108 11.4688C2.71316 11.8443 1.67856 12.3412 1.32114 12.854C0.96371 13.368 1.07434 13.8722 1.03422 14.5259C1.01477 14.8503 0.456747 15.86 0.426353 16.4943C0.329094 18.4906 0.85794 20.7215 0.85794 20.7215C0.861588 20.832 -0.379682 21.3302 0.117555 21.4796C1.65425 21.9426 6.3312 22.3569 7.20288 22.3946C7.35606 22.4007 7.66851 22.4067 8.1001 22.4116C7.91166 21.7749 7.80954 21.1018 7.80954 20.4043C7.80954 16.4967 10.979 13.3291 14.8888 13.3291C18.7986 13.3291 21.968 16.4967 21.968 20.4043C21.968 21.0957 21.8671 21.764 21.6823 22.3958C21.7042 22.3958 21.7261 22.3958 21.748 22.3958C25.0572 22.346 52.9402 22.2962 58.5569 22.0945C58.6262 22.092 58.6967 22.0896 58.7672 22.0872C58.6359 21.5477 58.5642 20.9851 58.5642 20.4055C58.5642 16.4979 61.7336 13.3303 65.6434 13.3303C69.5533 13.3303 72.7227 16.4979 72.7227 20.4055C72.7227 20.7749 72.6947 21.1382 72.64 21.4918C72.6607 21.4918 72.6789 21.4918 72.6996 21.4942C74.3044 21.544 79.7205 20.5416 79.7205 20.5416L81.5259 18.6376L82 14.4299L80.5739 12.3315L80.5679 12.3279Z" fill="url(#paint1_linear_901_13918)"/>
  <path d="M80.5679 12.3279C80.5679 12.3279 80.467 10.6159 80.467 10.114C80.467 9.61223 79.9381 8.46157 79.9381 8.46157L80.1338 7.28419C80.1338 6.90509 79.2403 7.06426 78.861 7.05697C75.7292 6.99865 72.995 6.4057 72.995 6.4057L72.2935 7.05697C70.8894 6.75686 61.8127 2.59652 61.8127 2.59652C61.8127 2.59652 62.2637 2.2964 62.4144 2.24537C62.5652 2.19555 59.6061 1.09228 49.8279 0.591679C40.0485 0.0910773 35.4858 1.99506 35.4858 1.99506L36.5387 2.34621C32.427 3.34863 25.3052 8.56121 25.3052 8.56121C21.9449 8.56121 21.5948 7.86012 21.5948 7.86012C12.9691 8.31091 5.19691 10.7167 3.54108 11.4688C2.71316 11.8443 1.67856 12.3412 1.32114 12.854C0.96371 13.368 1.07434 13.8722 1.03422 14.5259C1.01477 14.8503 0.456747 15.86 0.426353 16.4943C0.329094 18.4906 0.85794 20.7215 0.85794 20.7215C0.861588 20.832 -0.379682 21.3302 0.117555 21.4796C1.65425 21.9426 6.3312 22.3569 7.20288 22.3946C7.35606 22.4007 7.66851 22.4067 8.1001 22.4116C7.91166 21.7749 7.80954 21.1018 7.80954 20.4043C7.80954 16.4967 10.979 13.3291 14.8888 13.3291C18.7986 13.3291 21.968 16.4967 21.968 20.4043C21.968 21.0957 21.8671 21.764 21.6823 22.3958C21.7042 22.3958 21.7261 22.3958 21.748 22.3958C25.0572 22.346 52.9402 22.2962 58.5569 22.0945C58.6262 22.092 58.6967 22.0896 58.7672 22.0872C58.6359 21.5477 58.5642 20.9851 58.5642 20.4055C58.5642 16.4979 61.7336 13.3303 65.6434 13.3303C69.5533 13.3303 72.7227 16.4979 72.7227 20.4055C72.7227 20.7749 72.6947 21.1382 72.64 21.4918C72.6607 21.4918 72.6789 21.4918 72.6996 21.4942C74.3044 21.544 79.7205 20.5416 79.7205 20.5416L81.5259 18.6376L82 14.4299L80.5739 12.3315L80.5679 12.3279Z" fill="url(#paint2_linear_901_13918)"/>
  <path d="M5.33267 21.2018C5.33267 21.2018 4.38561 18.0451 3.91148 18.005C3.43734 17.9661 1.77907 17.8081 1.62102 18.005C1.46298 18.2018 1.62102 20.412 1.62102 20.412L5.33267 21.2018Z" fill="#263238" fill-opacity="0.1"/>
  <path d="M27.6985 8.61853C27.6985 8.61853 33.4793 4.90655 35.9533 3.85432C38.4274 2.80208 40.7701 2.35494 42.2703 2.19698C43.7705 2.03903 46.0343 2.05482 47.4032 2.03417C48.7721 2.01351 53.2728 2.32942 54.852 2.53963C56.4312 2.74983 58.2549 2.96004 60.4614 3.98676C62.6692 5.01226 66.3006 7.43264 66.3006 7.66958C66.3006 7.90651 66.1158 7.8008 66.1158 7.8008L27.6973 8.61975L27.6985 8.61853Z" fill="#F1FBF7"/>
  <path d="M46.2231 2.03516L44.3496 8.26473L47.3744 8.20033L48.1293 2.03516H46.2231Z" fill="#4FAC8B"/>
  <path d="M46.2231 2.03516L44.3496 8.26473L47.3744 8.20033L48.1293 2.03516H46.2231Z" fill="url(#paint3_linear_901_13918)"/>
  <path opacity="0.3" d="M43.2766 11.5499C43.2766 12.0287 42.8888 12.4163 42.4098 12.4163C41.9308 12.4163 41.543 12.0287 41.543 11.5499C41.543 11.0712 41.9308 10.6836 42.4098 10.6836C42.8888 10.6836 43.2766 11.0712 43.2766 11.5499Z" fill="black" fill-opacity="0.4"/>
  <path d="M43.9277 11.1602H40.8361C40.6246 11.1602 40.4531 11.3315 40.4531 11.5429V11.5793C40.4531 11.7907 40.6246 11.9621 40.8361 11.9621H43.9277C44.1392 11.9621 44.3107 11.7907 44.3107 11.5793V11.5429C44.3107 11.3315 44.1392 11.1602 43.9277 11.1602Z" fill="#4FAD8C"/>
  <path d="M43.9277 11.1602H40.8361C40.6246 11.1602 40.4531 11.3315 40.4531 11.5429V11.5793C40.4531 11.7907 40.6246 11.9621 40.8361 11.9621H43.9277C44.1392 11.9621 44.3107 11.7907 44.3107 11.5793V11.5429C44.3107 11.3315 44.1392 11.1602 43.9277 11.1602Z" fill="url(#paint4_linear_901_13918)"/>
  <path opacity="0.3" d="M60.1418 11.5577C60.1418 12.0365 59.754 12.4241 59.275 12.4241C58.796 12.4241 58.4082 12.0365 58.4082 11.5577C58.4082 11.079 58.796 10.6914 59.275 10.6914C59.754 10.6914 60.1418 11.079 60.1418 11.5577Z" fill="black" fill-opacity="0.4"/>
  <path d="M60.7929 11.168H57.7013C57.4898 11.168 57.3184 11.3393 57.3184 11.5507V11.5872C57.3184 11.7985 57.4898 11.9699 57.7013 11.9699H60.7929C61.0044 11.9699 61.1759 11.7985 61.1759 11.5872V11.5507C61.1759 11.3393 61.0044 11.168 60.7929 11.168Z" fill="#4FAD8C"/>
  <path d="M60.7929 11.168H57.7013C57.4898 11.168 57.3184 11.3393 57.3184 11.5507V11.5872C57.3184 11.7985 57.4898 11.9699 57.7013 11.9699H60.7929C61.0044 11.9699 61.1759 11.7985 61.1759 11.5872V11.5507C61.1759 11.3393 61.0044 11.168 60.7929 11.168Z" fill="url(#paint5_linear_901_13918)"/>
  <path d="M58.5566 3.25391C58.5566 3.25391 60.0155 5.5783 59.9608 5.88085C59.9061 6.1834 59.8502 7.91728 59.8502 7.91728H62.3607L59.8538 3.71927" fill="#4FAC8B"/>
  <path d="M58.5566 3.25391C58.5566 3.25391 60.0155 5.5783 59.9608 5.88085C59.9061 6.1834 59.8502 7.91728 59.8502 7.91728H62.3607L59.8538 3.71927" fill="url(#paint6_linear_901_13918)"/>
  <path d="M8.8645 20.2316C8.81587 23.6095 11.516 26.3883 14.8958 26.4369C18.2755 26.4855 21.0559 23.7869 21.1046 20.409C21.1532 17.0312 18.453 14.2524 15.0721 14.2038C11.6923 14.1552 8.91191 16.8538 8.86328 20.2316H8.8645Z" fill="#263238"/>
  <path d="M8.8645 20.2316C8.81587 23.6095 11.516 26.3883 14.8958 26.4369C18.2755 26.4855 21.0559 23.7869 21.1046 20.409C21.1532 17.0312 18.453 14.2524 15.0721 14.2038C11.6923 14.1552 8.91191 16.8538 8.86328 20.2316H8.8645Z" fill="#026C25"/>
  <path d="M8.8645 20.2316C8.81587 23.6095 11.516 26.3883 14.8958 26.4369C18.2755 26.4855 21.0559 23.7869 21.1046 20.409C21.1532 17.0312 18.453 14.2524 15.0721 14.2038C11.6923 14.1552 8.91191 16.8538 8.86328 20.2316H8.8645Z" fill="url(#paint7_linear_901_13918)"/>
  <path d="M8.86783 20.2148C8.86783 20.2148 8.86783 20.2258 8.86783 20.2306C8.8192 23.6085 11.5194 26.3873 14.8991 26.4359C18.2789 26.4845 21.0593 23.7859 21.1079 20.408C21.1079 20.4032 21.1079 20.3971 21.1079 20.3922L8.86905 20.2161L8.86783 20.2148Z" fill="#263238"/>
  <path d="M8.86783 20.2148C8.86783 20.2148 8.86783 20.2258 8.86783 20.2306C8.8192 23.6085 11.5194 26.3873 14.8991 26.4359C18.2789 26.4845 21.0593 23.7859 21.1079 20.408C21.1079 20.4032 21.1079 20.3971 21.1079 20.3922L8.86905 20.2161L8.86783 20.2148Z" fill="#026C25"/>
  <path d="M8.86783 20.2148C8.86783 20.2148 8.86783 20.2258 8.86783 20.2306C8.8192 23.6085 11.5194 26.3873 14.8991 26.4359C18.2789 26.4845 21.0593 23.7859 21.1079 20.408C21.1079 20.4032 21.1079 20.3971 21.1079 20.3922L8.86905 20.2161L8.86783 20.2148Z" fill="url(#paint8_linear_901_13918)"/>
  <path d="M10.6899 20.2559C10.6559 22.6277 12.5512 24.5779 14.9243 24.6119C17.2974 24.6459 19.2487 22.7516 19.2827 20.3799C19.3168 18.0081 17.4214 16.0579 15.0483 16.0239C12.6752 15.9899 10.7239 17.8841 10.6899 20.2559Z" fill="#E1EDFB"/>
  <path d="M12.3655 20.2817C12.3448 21.7264 13.4998 22.9148 14.9453 22.9354C16.3908 22.9561 17.5798 21.8018 17.6005 20.3571C17.6211 18.9124 16.4662 17.7241 15.0207 17.7034C13.5752 17.6827 12.3862 18.837 12.3655 20.2817Z" fill="#263238"/>
  <path d="M12.3655 20.2817C12.3448 21.7264 13.4998 22.9148 14.9453 22.9354C16.3908 22.9561 17.5798 21.8018 17.6005 20.3571C17.6211 18.9124 16.4662 17.7241 15.0207 17.7034C13.5752 17.6827 12.3862 18.837 12.3655 20.2817Z" fill="#4E9E82"/>
  <path d="M59.2761 20.3017C59.225 23.8047 62.0249 26.6844 65.5298 26.7354C69.0348 26.7864 71.9161 23.9882 71.9672 20.4852C72.0182 16.9822 69.2184 14.1025 65.7134 14.0515C62.2084 14.0004 59.3271 16.7987 59.2761 20.3017Z" fill="#263238"/>
  <path d="M59.2761 20.3017C59.225 23.8047 62.0249 26.6844 65.5298 26.7354C69.0348 26.7864 71.9161 23.9882 71.9672 20.4852C72.0182 16.9822 69.2184 14.1025 65.7134 14.0515C62.2084 14.0004 59.3271 16.7987 59.2761 20.3017Z" fill="#026C25"/>
  <path d="M59.2761 20.3017C59.225 23.8047 62.0249 26.6844 65.5298 26.7354C69.0348 26.7864 71.9161 23.9882 71.9672 20.4852C72.0182 16.9822 69.2184 14.1025 65.7134 14.0515C62.2084 14.0004 59.3271 16.7987 59.2761 20.3017Z" fill="url(#paint9_linear_901_13918)"/>
  <path d="M59.278 20.2852C59.278 20.2852 59.278 20.2961 59.278 20.301C59.227 23.8039 62.0268 26.6836 65.5318 26.7347C69.0368 26.7857 71.9181 23.9874 71.9691 20.4844C71.9691 20.4783 71.9691 20.4735 71.9691 20.4686L59.2805 20.2852H59.278Z" fill="#263238"/>
  <path d="M59.278 20.2852C59.278 20.2852 59.278 20.2961 59.278 20.301C59.227 23.8039 62.0268 26.6836 65.5318 26.7347C69.0368 26.7857 71.9181 23.9874 71.9691 20.4844C71.9691 20.4783 71.9691 20.4735 71.9691 20.4686L59.2805 20.2852H59.278Z" fill="#026C25"/>
  <path d="M59.278 20.2852C59.278 20.2852 59.278 20.2961 59.278 20.301C59.227 23.8039 62.0268 26.6836 65.5318 26.7347C69.0368 26.7857 71.9181 23.9874 71.9691 20.4844C71.9691 20.4783 71.9691 20.4735 71.9691 20.4686L59.2805 20.2852H59.278Z" fill="url(#paint10_linear_901_13918)"/>
  <path d="M61.1665 20.3294C61.1312 22.7887 63.0971 24.8105 65.5565 24.8458C68.0172 24.881 70.0402 22.9163 70.0754 20.4582C70.1107 17.999 68.1448 15.9771 65.6854 15.9419C63.2247 15.9066 61.2017 17.8714 61.1665 20.3294Z" fill="#E1EDFB"/>
  <path d="M62.9085 20.3531C62.8866 21.8513 64.0841 23.0833 65.5831 23.104C67.0821 23.1258 68.3149 21.929 68.3356 20.4309C68.3574 18.9327 67.1599 17.7006 65.6609 17.68C64.1619 17.6581 62.9304 18.8549 62.9085 20.3531Z" fill="#263238"/>
  <path d="M62.9085 20.3531C62.8866 21.8513 64.0841 23.0833 65.5831 23.104C67.0821 23.1258 68.3149 21.929 68.3356 20.4309C68.3574 18.9327 67.1599 17.7006 65.6609 17.68C64.1619 17.6581 62.9304 18.8549 62.9085 20.3531Z" fill="#4E9E82"/>
  <path d="M75.8579 9.8684C75.8579 9.8684 75.6986 10.1223 75.8579 10.2803C76.0172 10.4395 77.2074 12.1515 77.9684 12.1989C78.7307 12.2463 80.5677 12.1989 80.5677 12.1989L80.4218 9.86719H75.8579V9.8684Z" fill="#E1EDFB"/>
  <path opacity="0.3" d="M81.5206 18.6348L75.9683 19.3978C75.9683 19.3978 75.8868 19.8024 76.5142 19.8826C77.1415 19.964 80.8775 19.3128 80.8775 19.3128L81.5206 18.6348Z" fill="black" fill-opacity="0.3"/>
  <path opacity="0.3" d="M23.0762 20.927C23.2136 20.8978 24.9253 19.9064 26.9811 19.8894C29.0357 19.8723 56.9576 18.3863 56.7521 18.5965C56.5467 18.8067 55.8063 19.605 54.3146 19.8894C52.3256 20.2684 23.0774 20.927 23.0774 20.927H23.0762Z" fill="black" fill-opacity="0.1"/>
  <path d="M31.203 6.44727L32.5208 8.61735H27.6992L31.203 6.44727Z" fill="#4FAF8D"/>
  <path d="M29.5979 7.8331C29.2721 8.14051 29.1761 8.65812 29.5979 8.98497C30.0198 9.3106 32.8816 9.33004 33.2269 8.98497C33.5722 8.63989 33.5163 7.96797 33.0154 7.41148C32.6969 7.05668 31.7097 6.663 31.2878 6.70188C30.8659 6.74077 29.9262 7.52569 29.5979 7.83431V7.8331Z" fill="#4FAD8C"/>
  <path d="M29.5979 7.8331C29.2721 8.14051 29.1761 8.65812 29.5979 8.98497C30.0198 9.3106 32.8816 9.33004 33.2269 8.98497C33.5722 8.63989 33.5163 7.96797 33.0154 7.41148C32.6969 7.05668 31.7097 6.663 31.2878 6.70188C30.8659 6.74077 29.9262 7.52569 29.5979 7.83431V7.8331Z" fill="url(#paint11_linear_901_13918)"/>
  <path opacity="0.3" d="M1.04837 13.8875C1.04837 13.8875 1.87021 12.8304 3.09811 12.3273C4.32479 11.8243 11.5426 10.1986 16.8323 9.67852C21.8886 9.18157 25.0957 9.00781 25.0957 9.00781L26.0816 9.23746C26.0816 9.23746 11.6885 11.297 8.42183 11.9033C5.97941 12.3565 0.876953 15.0272 0.876953 15.0272L0.998527 14.7003L1.04959 13.8862L1.04837 13.8875Z" fill="black" fill-opacity="0.1"/>
  <path d="M3.29836 12.4324C2.75614 12.7301 2.32334 13.2015 2.12396 13.6851C1.90148 14.2246 1.94889 14.6049 2.10815 14.6365C2.26741 14.6681 5.1706 14.8115 5.67878 14.526C6.18696 14.2404 8.20143 11.9561 8.20143 11.9561C8.20143 11.9561 4.24907 11.9099 3.29836 12.4324Z" fill="#E1EDFB"/>
  <path d="M80.5681 12.3277C80.5596 12.3277 80.5523 12.1892 80.5414 11.9669C80.5292 11.7239 80.5146 11.4262 80.4988 11.0969C80.4794 10.7676 80.4623 10.4699 80.449 10.2269C80.4405 10.1163 80.4344 10.0264 80.4283 9.96446C80.4234 9.9025 80.4162 9.86969 80.4222 9.86726C80.432 9.86361 80.4696 10.0009 80.494 10.2233C80.5207 10.4456 80.545 10.753 80.562 11.0945C80.5791 11.4347 80.5864 11.7433 80.5864 11.9669C80.5864 12.1904 80.5766 12.329 80.5693 12.329L80.5681 12.3277Z" fill="#263238"/>
  <defs>
    <linearGradient id="paint0_linear_901_13918" x1="0" y1="11.4597" x2="82" y2="11.4597" gradientUnits="userSpaceOnUse">
      <stop stop-color="#3369A7"/>
      <stop offset="1" stop-color="#4A7EB9"/>
    </linearGradient>
    <linearGradient id="paint1_linear_901_13918" x1="-5" y1="13.5005" x2="91" y2="15.0005" gradientUnits="userSpaceOnUse">
      <stop stop-color="#037929"/>
      <stop offset="1" stop-color="#04541E"/>
    </linearGradient>
    <linearGradient id="paint2_linear_901_13918" x1="-5" y1="13.5005" x2="91" y2="15.0005" gradientUnits="userSpaceOnUse">
      <stop stop-color="#08B578"/>
      <stop offset="1" stop-color="#076644"/>
    </linearGradient>
    <linearGradient id="paint3_linear_901_13918" x1="44.1191" y1="5.73036" x2="48.5452" y2="5.74156" gradientUnits="userSpaceOnUse">
      <stop stop-color="#08B578"/>
      <stop offset="1" stop-color="#076644"/>
    </linearGradient>
    <linearGradient id="paint4_linear_901_13918" x1="40.2179" y1="11.6358" x2="44.7333" y2="11.7265" gradientUnits="userSpaceOnUse">
      <stop stop-color="#08B578"/>
      <stop offset="1" stop-color="#076644"/>
    </linearGradient>
    <linearGradient id="paint5_linear_901_13918" x1="57.0831" y1="11.6437" x2="61.5986" y2="11.7343" gradientUnits="userSpaceOnUse">
      <stop stop-color="#08B578"/>
      <stop offset="1" stop-color="#076644"/>
    </linearGradient>
    <linearGradient id="paint6_linear_901_13918" x1="58.3247" y1="6.02008" x2="62.7792" y2="6.03525" gradientUnits="userSpaceOnUse">
      <stop stop-color="#08B578"/>
      <stop offset="1" stop-color="#076644"/>
    </linearGradient>
    <linearGradient id="paint7_linear_901_13918" x1="8.11682" y1="21.4602" x2="22.4521" y2="21.5201" gradientUnits="userSpaceOnUse">
      <stop stop-color="#08B578"/>
      <stop offset="1" stop-color="#076644"/>
    </linearGradient>
    <linearGradient id="paint8_linear_901_13918" x1="8.1208" y1="23.9054" x2="22.4539" y2="24.0231" gradientUnits="userSpaceOnUse">
      <stop stop-color="#08B578"/>
      <stop offset="1" stop-color="#076644"/>
    </linearGradient>
    <linearGradient id="paint9_linear_901_13918" x1="58.5015" y1="21.5753" x2="73.3643" y2="21.6374" gradientUnits="userSpaceOnUse">
      <stop stop-color="#08B578"/>
      <stop offset="1" stop-color="#076644"/>
    </linearGradient>
    <linearGradient id="paint10_linear_901_13918" x1="58.5035" y1="24.1112" x2="73.3648" y2="24.2333" gradientUnits="userSpaceOnUse">
      <stop stop-color="#08B578"/>
      <stop offset="1" stop-color="#076644"/>
    </linearGradient>
    <linearGradient id="paint11_linear_901_13918" x1="29.0646" y1="8.20428" x2="33.9006" y2="8.23713" gradientUnits="userSpaceOnUse">
      <stop stop-color="#08B578"/>
      <stop offset="1" stop-color="#076644"/>
    </linearGradient>
  </defs>
</svg>
