<svg width="17" height="16" viewBox="0 0 17 16" fill="none" xmlns="http://www.w3.org/2000/svg">
  <path d="M3.92151 15.1001C4.10906 15.1001 4.29568 15.0426 4.45631 14.9279L8.23287 12.2195L12.0094 14.9279C12.1659 15.0405 12.3539 15.1007 12.5467 15.1001C12.7394 15.0994 12.9271 15.0378 13.0827 14.9242C13.2386 14.8112 13.3548 14.6519 13.4149 14.4691C13.475 14.2862 13.4759 14.0891 13.4175 13.9057L12.009 9.35985L15.7516 6.72253C15.9067 6.60805 16.0219 6.44771 16.0809 6.26418C16.1399 6.08065 16.1397 5.88322 16.0803 5.69981C16.0205 5.51686 15.9046 5.35733 15.7492 5.24379C15.5937 5.13024 15.4065 5.06842 15.214 5.06706L10.5786 5.0601L9.10284 0.627108C9.04194 0.44449 8.92513 0.28566 8.76895 0.173111C8.61277 0.0605626 8.42514 0 8.23263 0C8.04013 0 7.8525 0.0605626 7.69632 0.173111C7.54014 0.28566 7.42333 0.44449 7.36242 0.627108L5.91169 5.0601L1.25261 5.06706C1.05989 5.06815 0.872411 5.12994 0.716808 5.24365C0.561205 5.35737 0.445393 5.51722 0.385821 5.70051C0.32625 5.8838 0.32595 6.0812 0.384964 6.26467C0.443979 6.44813 0.559307 6.60834 0.714564 6.72253L4.45723 9.35985L3.04874 13.9057C2.99019 14.089 2.99098 14.2861 3.05099 14.469C3.11101 14.6519 3.22719 14.8112 3.38299 14.9242C3.53916 15.0387 3.72784 15.1004 3.92151 15.1001Z" fill="#FFBB5D"/>
</svg>
